<svg xmlns="http://www.w3.org/2000/svg" viewBox="0 0 512 512"><circle cx="256" cy="256" r="256" fill="#f4a723"/><path d="M89.941-106.641L55.225-213.281L21.680-213.281L21.680 0L48.047 0L48.047-85.107L45.850-171.094L82.031-59.326L97.559-59.326L136.963-174.170L134.766-85.107L134.766 0L161.133 0L161.133-213.281L127.441-213.281L89.941-106.641ZM343.652-64.160L343.652-64.160L316.553-64.160Q315.234-54.492 312.012-46.216Q308.789-37.939 303.369-31.934L303.369-31.934Q297.949-25.781 290.112-22.412Q282.275-19.043 271.582-19.043L271.582-19.043Q261.768-19.043 254.443-22.192Q247.119-25.342 241.699-30.908L241.699-30.908Q236.279-36.328 232.764-43.506Q229.248-50.684 227.051-58.887L227.051-58.887Q224.854-66.943 223.901-75.366Q222.949-83.789 222.949-91.699L222.949-91.699L222.949-121.729Q222.949-129.639 223.901-138.062Q224.854-146.484 227.051-154.541L227.051-154.541Q229.248-162.598 232.837-169.775Q236.426-176.953 241.846-182.373L241.846-182.373Q247.119-187.793 254.517-190.942Q261.914-194.092 271.582-194.092L271.582-194.092Q282.275-194.092 290.112-190.503Q297.949-186.914 303.369-180.615L303.369-180.615Q308.789-174.316 312.012-165.967Q315.234-157.617 316.553-147.949L316.553-147.949L343.652-147.949Q341.895-163.184 336.401-175.781Q330.908-188.379 321.826-197.461L321.826-197.461Q312.744-206.396 300.146-211.304Q287.549-216.211 271.582-216.211L271.582-216.211Q258.252-216.211 247.559-212.476Q236.865-208.740 228.516-202.148L228.516-202.148Q220.020-195.557 213.940-186.548Q207.861-177.539 203.906-166.992L203.906-166.992Q199.805-156.445 197.827-144.873Q195.850-133.301 195.703-121.436L195.703-121.436L195.703-91.699Q195.850-79.834 197.827-68.262Q199.805-56.689 203.906-46.143L203.906-46.143Q207.861-35.596 213.940-26.660Q220.020-17.725 228.516-11.133L228.516-11.133Q236.865-4.541 247.632-0.806Q258.398 2.930 271.582 2.930L271.582 2.930Q286.963 2.930 299.487-1.978Q312.012-6.885 321.240-15.820L321.240-15.820Q330.322-24.609 336.035-36.987Q341.748-49.365 343.652-64.160ZM385.254-213.281L385.254 0L453.516 0Q467.139-0.146 479.956-4.248Q492.773-8.350 502.588-16.113L502.588-16.113Q512.402-23.730 518.262-35.156Q524.121-46.582 523.975-61.523L523.975-61.523Q523.975-71.045 521.118-79.248Q518.262-87.451 513.135-94.043L513.135-94.043Q508.301-100.049 500.830-105.029Q493.359-110.010 485.303-111.914L485.303-111.914L485.303-112.354Q493.066-115.723 498.560-119.531Q504.053-123.340 508.594-128.906L508.594-128.906Q512.988-134.326 515.552-141.211Q518.115-148.096 518.262-156.445L518.262-156.445Q518.408-171.387 512.549-182.080Q506.689-192.773 496.875-199.658L496.875-199.658Q487.061-206.543 474.463-209.839Q461.865-213.135 448.682-213.281L448.682-213.281L385.254-213.281ZM412.500-22.998L412.500-99.756L455.713-99.756Q464.355-99.463 471.826-96.826Q479.297-94.189 484.863-89.355L484.863-89.355Q490.430-84.375 493.579-77.344Q496.729-70.313 496.582-61.230L496.582-61.230Q496.582-52.295 493.140-45.264Q489.697-38.232 483.838-33.398L483.838-33.398Q477.979-28.564 470.361-25.854Q462.744-23.145 454.248-22.998L454.248-22.998L412.500-22.998ZM450.293-122.314L412.500-122.314L412.500-190.137L449.561-190.137Q457.471-189.990 465.015-188.086Q472.559-186.182 478.418-182.227L478.418-182.227Q484.131-178.125 487.573-171.826Q491.016-165.527 491.016-156.592L491.016-156.592Q491.016-148.242 487.500-141.943Q483.984-135.645 478.271-131.396L478.271-131.396Q472.559-127.002 465.234-124.731Q457.910-122.461 450.293-122.314L450.293-122.314Z" fill="#fff" transform="translate(-16.829261779785156, 362.64049530029297)"/></svg>