<?xml version="1.0" encoding="utf-8"?>
<!-- Generator: Adobe Illustrator 29.0.1, SVG Export Plug-In . SVG Version: 9.03 Build 54978)  -->
<svg version="1.1" id="Calque_1" xmlns="http://www.w3.org/2000/svg" xmlns:xlink="http://www.w3.org/1999/xlink" x="0px" y="0px"
	 viewBox="0 0 841.89 595.28" style="enable-background:new 0 0 841.89 595.28;" xml:space="preserve">
<style type="text/css">
	.st0{fill:#1E1F1C;stroke:#1E1F1C;stroke-miterlimit:10;}
	.st1{fill:#1E1F1C;}
	.st2{fill:#1E1F1C;stroke:#FFFFFF;stroke-width:0.75;stroke-miterlimit:10;}
	.st3{fill:#1E1F1C;stroke:#1E1F1C;stroke-width:2;stroke-miterlimit:10;}
	.st4{fill:#F39204;stroke:#F39204;stroke-width:2;stroke-miterlimit:10;}
	.st5{fill:#FFFFFF;stroke:#1E1F1C;stroke-width:2;stroke-miterlimit:10;}
	.st6{fill:#F9B233;}
</style>
<g>
	<path class="st0" d="M406.25,297.73l-53.62-51.82c-3.51-3.39-8.96-4.26-12.18-1.93l-12.87,12.31l0,0l14.13-10.18l62.73,60.62
		L390.3,316.9l0,0l16.46-8.83C409.99,305.75,409.76,301.12,406.25,297.73z"/>
	<g>
		<line class="st1" x1="344.31" y1="248.75" x2="330.05" y2="258.81"/>
		<polygon class="st1" points="345.18,249.97 330.05,258.81 343.45,247.52 345.18,249.97 		"/>
	</g>
	<g>
		<line class="st1" x1="347.78" y1="251.16" x2="333.52" y2="261.22"/>
		<polygon class="st1" points="348.65,252.39 333.52,261.22 346.92,249.94 348.65,252.39 		"/>
	</g>
	<g>
		<line class="st1" x1="350.31" y1="254.75" x2="336.05" y2="264.81"/>
		<polygon class="st1" points="351.18,255.97 336.05,264.81 349.45,253.52 351.18,255.97 		"/>
	</g>
	<g>
		<line class="st1" x1="353.47" y1="257.8" x2="339.21" y2="267.86"/>
		<polygon class="st1" points="354.33,259.03 339.21,267.86 352.6,256.58 354.33,259.03 		"/>
	</g>
	<g>
		<line class="st1" x1="356.8" y1="260.42" x2="342.54" y2="270.48"/>
		<polygon class="st1" points="357.67,261.65 342.54,270.48 355.94,259.2 357.67,261.65 		"/>
	</g>
	<g>
		<line class="st1" x1="360.06" y1="262.83" x2="345.8" y2="272.89"/>
		<polygon class="st1" points="360.92,264.06 345.8,272.89 359.19,261.61 360.92,264.06 		"/>
	</g>
	<g>
		<line class="st1" x1="363.07" y1="265.73" x2="348.81" y2="275.79"/>
		<polygon class="st1" points="363.94,266.96 348.81,275.79 362.21,264.51 363.94,266.96 		"/>
	</g>
	<g>
		<line class="st1" x1="365.54" y1="269.24" x2="351.28" y2="279.3"/>
		<polygon class="st1" points="366.41,270.46 351.28,279.3 364.68,268.01 366.41,270.46 		"/>
	</g>
	<g>
		<line class="st1" x1="368.22" y1="272.19" x2="353.96" y2="282.25"/>
		<polygon class="st1" points="369.09,273.41 353.96,282.25 367.36,270.96 369.09,273.41 		"/>
	</g>
	<g>
		<line class="st1" x1="371.7" y1="274.6" x2="357.44" y2="284.66"/>
		<polygon class="st1" points="372.56,275.83 357.44,284.66 370.83,273.38 372.56,275.83 		"/>
	</g>
	<g>
		<line class="st1" x1="374.22" y1="278.19" x2="359.96" y2="288.25"/>
		<polygon class="st1" points="375.09,279.41 359.96,288.25 373.36,276.96 375.09,279.41 		"/>
	</g>
	<g>
		<line class="st1" x1="377.38" y1="281.24" x2="363.12" y2="291.3"/>
		<polygon class="st1" points="378.25,282.47 363.12,291.3 376.52,280.02 378.25,282.47 		"/>
	</g>
	<g>
		<line class="st1" x1="380.72" y1="283.86" x2="366.46" y2="293.92"/>
		<polygon class="st1" points="381.58,285.09 366.46,293.92 379.85,282.64 381.58,285.09 		"/>
	</g>
	<g>
		<line class="st1" x1="383.97" y1="286.27" x2="369.71" y2="296.33"/>
		<polygon class="st1" points="384.83,287.5 369.71,296.33 383.1,285.05 384.83,287.5 		"/>
	</g>
	<g>
		<line class="st1" x1="386.98" y1="289.17" x2="372.72" y2="299.23"/>
		<polygon class="st1" points="387.85,290.4 372.72,299.23 386.12,287.95 387.85,290.4 		"/>
	</g>
	<g>
		<line class="st1" x1="389.45" y1="292.68" x2="375.19" y2="302.74"/>
		<polygon class="st1" points="390.32,293.9 375.19,302.74 388.59,291.45 390.32,293.9 		"/>
	</g>
	<g>
		<line class="st1" x1="393.32" y1="295.28" x2="379.06" y2="305.34"/>
		<polygon class="st1" points="394.18,296.5 379.06,305.34 392.46,294.05 394.18,296.5 		"/>
	</g>
	<g>
		<line class="st1" x1="396.57" y1="297.69" x2="382.31" y2="307.75"/>
		<polygon class="st1" points="397.44,298.92 382.31,307.75 395.71,296.46 397.44,298.92 		"/>
	</g>
	<g>
		<line class="st1" x1="399.59" y1="300.59" x2="385.33" y2="310.65"/>
		<polygon class="st1" points="400.45,301.82 385.33,310.65 398.72,299.36 400.45,301.82 		"/>
	</g>
	<g>
		<line class="st1" x1="402.06" y1="304.09" x2="387.8" y2="314.15"/>
		<polygon class="st1" points="402.92,305.32 387.8,314.15 401.19,302.87 402.92,305.32 		"/>
	</g>
</g>
<g>
	<polygon class="st2" points="365.37,287.71 346.23,298.65 383.53,238.28 	"/>
	<polygon class="st3" points="341.33,345.65 348.84,317.95 348.01,314.78 348.01,314.78 359.16,302.86 	"/>
	
		<ellipse transform="matrix(0.4362 -0.8999 0.8999 0.4362 -123.9104 502.3025)" class="st4" cx="338.88" cy="350.03" rx="5.02" ry="5.79"/>
	
		<ellipse transform="matrix(0.4362 -0.8999 0.8999 0.4362 -123.9104 502.3025)" class="st5" cx="338.88" cy="350.03" rx="5.02" ry="5.79"/>
	<path class="st4" d="M363.41,287.22"/>
	<polygon class="st2" points="409.04,251.2 349.17,310.38 361.74,289.43 	"/>
	<path class="st3" d="M347.05,313.22l-2.74-1.72c-0.39-0.24-0.74-0.55-1.03-0.91l-0.49-0.61c-1.12-1.37-1.22-3.27-0.25-4.65
		l3.91-5.57c0.29-0.41,0.66-0.76,1.1-1.02l15.88-9.54"/>
	<polygon class="st4" points="344.44,311.91 339.94,309.52 311.45,325.62 347.15,299.17 341.45,308.6 	"/>
	<polygon class="st3" points="344.44,311.91 339.94,309.52 311.45,325.62 347.15,299.17 341.45,308.6 	"/>
	
		<ellipse transform="matrix(0.7625 -0.647 0.647 0.7625 -139.6312 277.0078)" class="st4" cx="307.47" cy="328.68" rx="5.02" ry="5.78"/>
	
		<ellipse transform="matrix(0.7625 -0.647 0.647 0.7625 -139.6312 277.0078)" class="st5" cx="307.47" cy="328.68" rx="5.02" ry="5.78"/>
	
		<ellipse transform="matrix(0.2991 -0.9542 0.9542 0.2991 -36.9935 545.8249)" class="st3" cx="353.06" cy="298.09" rx="1.64" ry="1.62"/>
	<path class="st3" d="M340.34,354.45c-1.7,7.56,5.47,10.5,5.47,10.5"/>
</g>
<g>
	<path class="st1" d="M361.58,311.24c29.03,20.77,52.88,12.5,83.28,0.68c6.41-2.29,14.9-5.99,21.55-7.42
		c7.59-1.68,15.63-2.16,23.33-0.5c11.46,2.27,21.57,9.14,29.08,17.88c1.88,2.11,3.54,4.37,5.42,6.46c0.32,0.32,0.65,0.66,1.03,0.82
		c0.41,0.18,0.63-0.43,0.69-0.86c-0.01,2.91-3.33-0.82-4.18-1.47c-15.2-15.17-32.72-22.53-54.04-16.82
		c-10.29,2.82-21.19,8.04-31.33,11.42C408.93,331.32,383.83,333.23,361.58,311.24L361.58,311.24z"/>
</g>
<g>
	<path class="st1" d="M361.56,311.66c1.82,0.85,5.74,2.76,7.44,3.6c2.84,1.39,7.15,3.13,10.07,4.37c1.52,0.55,6.11,2.2,7.71,2.79
		c5.09,1.52,10.61,3.13,15.82,3.97c21.72,4.32,43.32-1.59,64.59-6.14c9.57-1.84,19.59-2.66,29.31-1.14
		c9.29,1.46,18.06,5.87,24.67,12.54c0,0,0.5,0.48,0.5,0.48c0.16,0.14,0.37,0.4,0.5,0.57c1.62,2.27,3,4.65,4.45,7.01
		c-1.83-2.3-3.52-4.79-5.55-6.9c-3.34-2.71-6.92-5.22-10.8-6.98c-27.98-12.34-57.12,5.58-85.98,5.69
		c-5.42,0.21-11.38-0.3-16.78-1.01c0,0-5.5-1.07-5.5-1.07c-2.68-0.48-5.47-1.43-8.11-2.1c-2.03-0.57-5.89-2.11-7.88-2.77
		c-2.5-1.04-5.15-2.24-7.63-3.34C372.72,318.47,366.84,315.06,361.56,311.66L361.56,311.66z"/>
</g>
<g>
	<path class="st1" d="M379.12,319.33c20.19,8.7,41.78,13.5,63.66,10.04c18.72-2.59,40.66-6.86,56.7,6.07
		c2.35,1.64,3.83,4.03,5.51,6.27c0,0-2.94-2.92-2.94-2.92c-5-4.48-11.73-6.9-18.23-8.12c-13.58-2.35-26.77,0.87-40.55,2.67
		C419.95,336.59,399.11,331.39,379.12,319.33L379.12,319.33z"/>
</g>
<g>
	<g>
		<path class="st1" d="M419.45,307.17c0-2.05,0.02-5.52,0.05-7.57h-0.18c-0.28,3.77-0.81,10.26-0.85,11.29h-2.67
			c-0.11-2.16-0.6-8.42-0.87-11.36h-0.18c0.02,1.82,0.12,4.88,0.12,7.52v3.84h-3.33v-15.31h4.97c0.16,1.43,0.51,4.9,0.62,6.74h0.14
			c0.21-2.16,0.3-3.61,0.62-6.74h5.17v15.31h-3.59V307.17z"/>
		<path class="st1" d="M428.17,295.58v15.31h-3.63v-15.31H428.17z"/>
		<path class="st1" d="M437.6,307.17c0-2.05,0.02-5.52,0.05-7.57h-0.18c-0.28,3.77-0.81,10.26-0.85,11.29h-2.67
			c-0.12-2.16-0.6-8.42-0.87-11.36h-0.18c0.02,1.82,0.12,4.88,0.12,7.52v3.84h-3.33v-15.31h4.97c0.16,1.43,0.51,4.9,0.62,6.74h0.14
			c0.21-2.16,0.3-3.61,0.62-6.74h5.17v15.31h-3.59V307.17z"/>
		<path class="st1" d="M446.31,295.58v15.31h-3.63v-15.31H446.31z"/>
	</g>
</g>
<path class="st6" d="M471.07,272.01"/>
<path class="st1" d="M443.81,299.3c7.61-2.53,2.15,11.72,2.15,11.72l5.47-14.24"/>
<g>
	<g>
		<path class="st1" d="M362.86,342.84v0.94c0,1.83-0.49,3.62-4.17,3.62c-2,0-3.97-0.55-3.97-3.37v-5.52c0-2.52,1.75-3.29,4.06-3.29
			c3.66,0,4.09,1.94,4.09,3.27v1.1h-3.61v-1.4c0-0.48-0.04-0.76-0.47-0.76c-0.4,0-0.49,0.23-0.49,0.76v6.2c0,0.59,0.09,0.8,0.45,0.8
			c0.4,0,0.52-0.21,0.52-0.85v-1.49H362.86z"/>
		<path class="st1" d="M372.12,338.49v5.65c0,2.4-1.66,3.27-4.26,3.27c-2.51,0-4-0.94-4-3.27v-5.79c0-2.19,1.71-3.13,4.08-3.13
			C370.33,335.22,372.12,336.18,372.12,338.49z M367.43,338.15v6.32c0,0.44,0.16,0.71,0.54,0.71c0.34,0,0.54-0.23,0.54-0.71v-6.34
			c0-0.53-0.16-0.69-0.56-0.69C367.61,337.44,367.43,337.62,367.43,338.15z"/>
		<path class="st1" d="M377.04,335.4v11.83h-3.55V335.4H377.04z"/>
		<path class="st1" d="M378.5,335.4h6.58v2.33h-3.01v2.31h2.76v2.33h-2.76v4.87h-3.57V335.4z"/>
		<path class="st1" d="M386.1,335.4h6.58v2.33h-3.01v2.31h2.76v2.33h-2.76v4.87h-3.57V335.4z"/>
		<path class="st1" d="M397.28,335.4v9.13c0,0.43,0.13,0.66,0.47,0.66c0.4,0,0.52-0.21,0.52-0.66v-9.13h3.66v8.77
			c0,2.5-1.48,3.2-4.22,3.2c-2.85,0-4.04-0.92-4.04-3.25v-8.72H397.28z"/>
		<path class="st1" d="M406.86,342.24v4.99h-3.55V335.4h4.42c2.92,0,3.84,1.17,3.84,3.04v0.43c0,1.33-0.56,2.01-1.44,2.36
			c1.08,0.39,1.37,1.05,1.37,2.77c0,1.42-0.02,2.77,0.04,3.23h-3.46c-0.16-0.21-0.2-1.03-0.2-3.73c0-1.17-0.13-1.26-0.85-1.26
			H406.86z M406.89,340.14h0.27c0.58,0,0.83-0.16,0.83-0.91v-0.94c0-0.66-0.2-0.8-0.9-0.8h-0.2V340.14z"/>
		<path class="st1" d="M419.1,342.16h-2.74v2.74h3.3l-0.4,2.33h-6.46V335.4h6.44v2.33h-2.87v2.11h2.74V342.16z"/>
		<path class="st1" d="M433.68,340.09l-2.38,4.26c-1.48,2.65-2.58,3.02-4.47,3.02c-2.4,0-3.7-1.1-3.7-3.25
			c0-1.88,0.52-2.45,3.48-4.12c1.19-0.66,1.33-0.94,1.33-2.04c0-0.51-0.16-0.69-0.45-0.69c-0.34,0-0.47,0.2-0.47,0.73
			c0,0.6,0.02,0.96,0.65,1.74l6.08,7.5h-3.52l-4.71-5.7c-1.26-1.53-1.48-1.99-1.48-3.32c0-1.39,0.61-2.98,3.41-2.98
			c2.72,0,3.3,1.42,3.3,2.72c0,1.83-0.45,2.26-2.54,3.45c-1.14,0.66-1.73,1.15-1.73,2.27c0,1.12,0.34,1.47,1.01,1.47
			c0.52,0,0.83-0.41,1.35-1.44l1.82-3.61H433.68z"/>
		<path class="st1" d="M437.36,335.4h4.15c2.31,0,3.91,0.71,3.91,2.65v0.59c0,1.46-0.74,2.01-1.59,2.22c0.81,0.25,1.8,0.75,1.8,2.2
			v1.01c0,2.22-1.08,3.16-4.02,3.16h-4.24V335.4z M441.27,339.85c0.4,0,0.65-0.18,0.65-0.69v-0.92c0-0.39-0.09-0.75-0.74-0.75h-0.34
			v2.36H441.27z M440.84,345.15h0.31c0.61,0,0.72-0.28,0.72-0.82v-1.65c0-0.55-0.2-0.78-0.83-0.78h-0.2V345.15z"/>
		<path class="st1" d="M453.16,342.16h-2.74v2.74h3.3l-0.4,2.33h-6.46V335.4h6.44v2.33h-2.87v2.11h2.74V342.16z"/>
		<path class="st1" d="M457.96,344.74l-0.18,2.49h-3.64l1.59-11.83h5.68l1.57,11.83h-3.68l-0.18-2.49H457.96z M458.98,342.39
			c-0.07-0.91-0.34-4-0.4-4.64h-0.16c-0.02,0.52-0.25,3.48-0.31,4.64H458.98z"/>
		<path class="st1" d="M467.53,335.4v9.13c0,0.43,0.13,0.66,0.47,0.66c0.4,0,0.52-0.21,0.52-0.66v-9.13h3.66v8.77
			c0,2.5-1.48,3.2-4.22,3.2c-2.85,0-4.04-0.92-4.04-3.25v-8.72H467.53z"/>
		<path class="st1" d="M474.91,337.72h-1.77v-2.33h7.09v2.33h-1.77v9.5h-3.55V337.72z"/>
		<path class="st1" d="M487.54,342.16h-2.74v2.74h3.3l-0.4,2.33h-6.46V335.4h6.44v2.33h-2.87v2.11h2.74V342.16z"/>
	</g>
</g>
</svg>
