<?xml version="1.0" encoding="utf-8"?>
<!-- Generator: Adobe Illustrator 29.1.0, SVG Export Plug-In . SVG Version: 9.03 Build 55587)  -->
<svg version="1.1" id="Calque_1" xmlns="http://www.w3.org/2000/svg" xmlns:xlink="http://www.w3.org/1999/xlink" x="0px" y="0px"
	 viewBox="0 0 841.9 595.3" style="enable-background:new 0 0 841.9 595.3;" xml:space="preserve">
<style type="text/css">
	.st0{fill:#1E1F1C;stroke:#1E1F1C;stroke-miterlimit:10;}
	.st1{fill:none;}
	.st2{fill:#1E1F1C;}
	.st3{fill:#1E1F1C;stroke:#FFFFFF;stroke-width:0.75;stroke-miterlimit:10;}
	.st4{fill:#1E1F1C;stroke:#1E1F1C;stroke-width:2;stroke-miterlimit:10;}
	.st5{fill:#F39204;stroke:#F39204;stroke-width:2.0002;stroke-miterlimit:10.001;}
	.st6{fill:#FFFFFF;stroke:#1E1F1C;stroke-width:2.0002;stroke-miterlimit:10.001;}
	.st7{fill:#F39204;stroke:#F39204;stroke-width:2;stroke-miterlimit:10;}
	.st8{fill:#F39204;stroke:#F39204;stroke-width:2;stroke-miterlimit:10.0002;}
	.st9{fill:#FFFFFF;stroke:#1E1F1C;stroke-width:2;stroke-miterlimit:10.0002;}
	.st10{fill:#1E1F1C;stroke:#1E1F1C;stroke-width:2;stroke-miterlimit:9.9996;}
	.st11{fill:#F9B233;}
</style>
<g>
	<g>
		<path class="st0" d="M511.1,357.6l-107.6-104c-7-6.8-18.1-8.6-24.5-3.8L353,274.4l0,0l28.3-20.5l125.9,121.7l-28.3,20.5l0,0
			l33.1-17.7C518.7,373.8,518.3,364.4,511.1,357.6z"/>
		<g>
			<line class="st1" x1="386.8" y1="259.4" x2="358.1" y2="279.5"/>
			<polygon class="st2" points="388.6,261.8 358.1,279.5 385.2,256.8 			"/>
		</g>
		<g>
			<line class="st1" x1="393.8" y1="264.2" x2="365.1" y2="284.3"/>
			<polygon class="st2" points="395.4,266.6 365.1,284.3 392,261.6 			"/>
		</g>
		<g>
			<line class="st1" x1="398.8" y1="271.4" x2="370.1" y2="291.5"/>
			<polygon class="st2" points="400.6,273.8 370.1,291.5 397.2,268.8 			"/>
		</g>
		<g>
			<line class="st1" x1="405.2" y1="277.5" x2="376.5" y2="297.7"/>
			<polygon class="st2" points="406.9,279.9 376.5,297.7 403.4,275 			"/>
		</g>
		<g>
			<line class="st1" x1="411.9" y1="282.7" x2="383.2" y2="303"/>
			<polygon class="st2" points="413.7,285.1 383.2,303 410.1,280.3 			"/>
		</g>
		<g>
			<line class="st1" x1="418.5" y1="287.5" x2="389.8" y2="307.8"/>
			<polygon class="st2" points="420.1,290.1 389.8,307.8 416.7,285.1 			"/>
		</g>
		<g>
			<line class="st1" x1="424.5" y1="293.3" x2="395.8" y2="313.6"/>
			<polygon class="st2" points="426.1,295.9 395.8,313.6 422.7,290.9 			"/>
		</g>
		<g>
			<line class="st1" x1="429.3" y1="300.3" x2="400.8" y2="320.6"/>
			<polygon class="st2" points="431.1,303 400.8,320.6 427.7,297.9 			"/>
		</g>
		<g>
			<line class="st1" x1="434.8" y1="306.4" x2="406.3" y2="326.4"/>
			<polygon class="st2" points="436.6,308.8 406.3,326.4 433.2,304 			"/>
		</g>
		<g>
			<line class="st1" x1="441.8" y1="311.2" x2="413.1" y2="331.5"/>
			<polygon class="st2" points="443.6,313.6 413.1,331.5 440,308.8 			"/>
		</g>
		<g>
			<line class="st1" x1="446.8" y1="318.4" x2="418.3" y2="338.5"/>
			<polygon class="st2" points="448.6,320.8 418.3,338.5 445.2,316 			"/>
		</g>
		<g>
			<line class="st1" x1="453.2" y1="324.4" x2="424.5" y2="344.7"/>
			<polygon class="st2" points="454.8,327 424.5,344.7 451.4,322 			"/>
		</g>
		<g>
			<line class="st1" x1="459.9" y1="329.9" x2="431.4" y2="349.9"/>
			<polygon class="st2" points="461.7,332.3 431.4,349.9 458.3,327.2 			"/>
		</g>
		<g>
			<line class="st1" x1="466.5" y1="334.7" x2="437.8" y2="354.8"/>
			<polygon class="st2" points="468.1,337.1 437.8,354.8 464.7,332.1 			"/>
		</g>
		<g>
			<line class="st1" x1="472.5" y1="340.5" x2="443.8" y2="360.6"/>
			<polygon class="st2" points="474.3,342.9 443.8,360.6 470.7,338.1 			"/>
		</g>
		<g>
			<line class="st1" x1="477.5" y1="347.5" x2="448.8" y2="367.6"/>
			<polygon class="st2" points="479.1,349.9 448.8,367.6 475.7,345.1 			"/>
		</g>
		<g>
			<line class="st1" x1="485.2" y1="352.7" x2="456.6" y2="372.8"/>
			<polygon class="st2" points="487,355.2 456.6,372.8 483.6,350.1 			"/>
		</g>
		<g>
			<line class="st1" x1="491.8" y1="357.6" x2="463.1" y2="377.8"/>
			<polygon class="st2" points="493.4,360 463.1,377.8 490,355.2 			"/>
		</g>
		<g>
			<line class="st1" x1="497.8" y1="363.4" x2="469.1" y2="383.5"/>
			<polygon class="st2" points="499.6,365.8 469.1,383.5 496,361 			"/>
		</g>
		<g>
			<line class="st1" x1="502.8" y1="370.4" x2="474.1" y2="390.5"/>
			<polygon class="st2" points="504.4,372.8 474.1,390.5 501,368 			"/>
		</g>
	</g>
	<g>
		<polygon class="st3" points="429.1,337.5 390.6,359.4 465.5,238.3 		"/>
		<polygon class="st4" points="380.8,453.7 395.8,398.3 394.2,391.9 394.2,391.9 416.7,368 		"/>
		
			<ellipse transform="matrix(0.4362 -0.8999 0.8999 0.4362 -204.3101 599.1005)" class="st5" cx="375.9" cy="462.6" rx="10" ry="11.6"/>
		
			<ellipse transform="matrix(0.4362 -0.8999 0.8999 0.4362 -204.3101 599.1005)" class="st6" cx="375.9" cy="462.6" rx="10" ry="11.6"/>
		<path class="st7" d="M425.1,336.5"/>
		<polygon class="st3" points="516.7,264.2 396.6,383.1 421.7,340.9 		"/>
		<path class="st4" d="M392.2,388.7l-5.4-3.4c-0.8-0.4-1.4-1-2-1.8l-1-1.2c-2.2-2.8-2.4-6.6-0.4-9.2l7.8-11.2c0.6-0.8,1.4-1.6,2.2-2
			l31.9-19.1"/>
		<polygon class="st7" points="387,386.1 377.9,381.3 320.9,413.6 392.4,360.6 381.2,379.4 		"/>
		<polygon class="st4" points="387,386.1 377.9,381.3 320.9,413.6 392.4,360.6 381.2,379.4 		"/>
		
			<ellipse transform="matrix(0.7625 -0.647 0.647 0.7625 -197.2718 302.1361)" class="st8" cx="312.9" cy="419.8" rx="10" ry="11.6"/>
		
			<ellipse transform="matrix(0.7625 -0.647 0.647 0.7625 -197.2718 302.1361)" class="st9" cx="312.9" cy="419.8" rx="10" ry="11.6"/>
		<ellipse class="st10" cx="404.3" cy="358.5" rx="3.2" ry="3.2"/>
		<path class="st4" d="M378.7,471.6c-3.4,15.3,11,21.1,11,21.1"/>
	</g>
	<g>
		<path class="st2" d="M421.5,384.7c58.2,41.8,106.2,25.1,167.2,1.4c12.8-4.6,29.9-12,43.2-14.9c15.3-3.4,31.3-4.4,46.8-1
			c23.1,4.6,43.4,18.3,58.4,35.9c3.8,4.2,7,8.8,10.8,13.1c0.6,0.6,1.4,1.4,2,1.6c0.8,0.4,1.2-0.8,1.4-1.8c0,5.8-6.6-1.6-8.4-3
			c-30.5-30.5-65.7-45.2-108.4-33.7c-20.7,5.6-42.6,16.1-62.8,22.9C516.5,425,466.1,428.8,421.5,384.7L421.5,384.7z"/>
	</g>
	<g>
		<path class="st2" d="M421.5,385.7c3.6,1.8,11.4,5.6,14.9,7.2c5.6,2.8,14.3,6.2,20.3,8.8c3,1,12.2,4.4,15.5,5.6
			c10.2,3,21.3,6.2,31.7,8c43.6,8.6,86.9-3.2,129.7-12.2c19.3-3.6,39.4-5.4,58.8-2.2c18.7,3,36.3,11.8,49.6,25.1l1,1
			c0.4,0.2,0.8,0.8,1,1.2c3.2,4.6,6,9.2,9,14.1c-3.6-4.6-7-9.6-11-13.9c-6.6-5.4-13.9-10.4-21.7-14.1
			c-56.2-24.7-114.6,11.2-172.7,11.4c-10.8,0.4-22.9-0.6-33.7-2l-11-2.2c-5.4-1-11-2.8-16.3-4.2c-4-1.2-11.8-4.2-15.9-5.6
			c-5-2-10.2-4.4-15.3-6.6C443.8,399.3,432,392.5,421.5,385.7L421.5,385.7z"/>
	</g>
	<g>
		<path class="st2" d="M456.6,400.9c40.6,17.5,83.9,27.1,127.9,20.1c37.5-5.2,81.7-13.9,113.8,12.2c4.8,3.2,7.6,8,11,12.6l-5.8-5.8
			c-10-9-23.5-13.9-36.5-16.3c-27.3-4.8-53.8,1.8-81.3,5.4C538.8,435.7,496.8,425.2,456.6,400.9L456.6,400.9z"/>
	</g>
	<g>
		<g>
			<path class="st2" d="M537.8,376.6c0-4,0-11,0-15.3h-0.4c-0.6,7.6-1.6,20.7-1.8,22.7h-5.4c-0.2-4.4-1.2-16.9-1.8-22.9h-0.4
				c0,3.6,0.2,9.8,0.2,15.1v7.6h-6.6v-30.7h10c0.4,2.8,1,9.8,1.2,13.5h0.2c0.4-4.4,0.6-7.2,1.2-13.5h10.4v30.7h-7.2L537.8,376.6
				L537.8,376.6z"/>
			<path class="st2" d="M555.2,353.3v30.7H548v-30.7H555.2z"/>
			<path class="st2" d="M574.1,376.6c0-4,0-11,0-15.3h-0.4c-0.6,7.6-1.6,20.7-1.8,22.7h-5.4c-0.2-4.4-1.2-16.9-1.8-22.9h-0.4
				c0,3.6,0.2,9.8,0.2,15.1v7.6h-6.6v-30.7h10c0.4,2.8,1,9.8,1.2,13.5h0.2c0.4-4.4,0.6-7.2,1.2-13.5h10.4v30.7h-7.2L574.1,376.6
				L574.1,376.6z"/>
			<path class="st2" d="M591.6,353.3v30.7h-7.2v-30.7H591.6z"/>
		</g>
	</g>
	<path class="st11" d="M641.4,306"/>
	<path class="st2" d="M586.6,360.8c15.3-5,4.2,23.5,4.2,23.5l11-28.5"/>
	<g>
		<g>
			<path class="st2" d="M424.1,448.1v1.8c0,3.6-1,7.2-8.4,7.2c-4,0-8-1-8-6.8v-11c0-5,3.6-6.6,8.2-6.6c7.4,0,8.2,3.8,8.2,6.6v2.2
				h-7.2v-2.8c0-1,0-1.6-1-1.6c-0.8,0-1,0.4-1,1.6v12.4c0,1.2,0.2,1.6,1,1.6c0.8,0,1-0.4,1-1.8v-3L424.1,448.1L424.1,448.1z"/>
			<path class="st2" d="M442.6,439.5v11.2c0,4.8-3.4,6.6-8.6,6.6c-5,0-8-1.8-8-6.6v-11.6c0-4.4,3.4-6.2,8.2-6.2
				C439,432.9,442.6,434.9,442.6,439.5z M433.2,438.7v12.6c0,0.8,0.4,1.4,1,1.4c0.6,0,1-0.4,1-1.4v-12.6c0-1-0.4-1.4-1.2-1.4
				C433.6,437.3,433.2,437.7,433.2,438.7z"/>
			<path class="st2" d="M452.4,433.3v23.7h-7v-23.7H452.4z"/>
			<path class="st2" d="M455.4,433.3h13.3v4.6h-6v4.6h5.6v4.6h-5.6v9.8h-7.2V433.3L455.4,433.3z"/>
			<path class="st2" d="M470.7,433.3H484v4.6h-6v4.6h5.6v4.6h-5.6v9.8h-7.2V433.3L470.7,433.3z"/>
			<path class="st2" d="M493.2,433.3v18.3c0,0.8,0.2,1.4,1,1.4s1-0.4,1-1.4v-18.3h7.4v17.7c0,5-3,6.4-8.4,6.4c-5.8,0-8-1.8-8-6.4
				v-17.5h7V433.3z"/>
			<path class="st2" d="M512.5,446.9v10h-7v-23.7h8.8c5.8,0,7.6,2.4,7.6,6v0.8c0,2.6-1.2,4-2.8,4.8c2.2,0.8,2.8,2,2.8,5.6
				c0,2.8,0,5.6,0,6.4h-7c-0.4-0.4-0.4-2-0.4-7.4c0-2.4-0.2-2.6-1.8-2.6H512.5L512.5,446.9z M512.5,442.7h0.6c1.2,0,1.6-0.4,1.6-1.8
				v-1.8c0-1.4-0.4-1.6-1.8-1.6h-0.4L512.5,442.7L512.5,442.7z"/>
			<path class="st2" d="M537,446.9h-5.4v5.4h6.6l-0.8,4.6h-13.1v-23.7h12.8v4.6h-5.8v4.2h5.4L537,446.9L537,446.9z"/>
			<path class="st2" d="M566.3,442.7l-4.8,8.6c-3,5.2-5.2,6-9,6c-4.8,0-7.4-2.2-7.4-6.4c0-3.8,1-5,7-8.2c2.4-1.4,2.6-1.8,2.6-4
				c0-1-0.4-1.4-1-1.4s-1,0.4-1,1.4c0,1.2,0,2,1.2,3.4l12.2,15.1h-7l-9.4-11.4c-2.6-3-3-4-3-6.6c0-2.8,1.2-6,6.8-6
				c5.4,0,6.6,2.8,6.6,5.4c0,3.6-1,4.6-5,7c-2.2,1.4-3.4,2.2-3.4,4.6c0,2.4,0.6,3,2,3c1,0,1.6-0.8,2.8-2.8l3.6-7.2L566.3,442.7
				L566.3,442.7z"/>
			<path class="st2" d="M573.7,433.3h8.2c4.6,0,7.8,1.4,7.8,5.2v1.2c0,3-1.4,4-3.2,4.4c1.6,0.4,3.6,1.6,3.6,4.4v2
				c0,4.4-2.2,6.4-8,6.4h-8.4L573.7,433.3L573.7,433.3z M581.5,442.3c0.8,0,1.2-0.4,1.2-1.4v-1.8c0-0.8-0.2-1.6-1.4-1.6h-0.6v4.8
				H581.5L581.5,442.3z M580.5,452.7h0.6c1.2,0,1.4-0.6,1.4-1.6v-3.2c0-1-0.4-1.6-1.6-1.6h-0.4V452.7z"/>
			<path class="st2" d="M605.4,446.9H600v5.4h6.6l-0.8,4.6h-13.1v-23.7h12.8v4.6h-5.8v4.2h5.4L605.4,446.9L605.4,446.9z"/>
			<path class="st2" d="M615.1,451.9l-0.4,5h-7.2l3.2-23.7h11.4l3.2,23.7h-7.4l-0.4-5H615.1z M617.1,447.3c-0.2-1.8-0.6-8-0.8-9.2
				h-0.4c0,1-0.4,7-0.6,9.2H617.1z"/>
			<path class="st2" d="M634.1,433.3v18.3c0,0.8,0.2,1.4,1,1.4s1-0.4,1-1.4v-18.3h7.4v17.7c0,5-3,6.4-8.4,6.4c-5.8,0-8-1.8-8-6.4
				v-17.5h7V433.3z"/>
			<path class="st2" d="M649,437.9h-3.6v-4.6h14.3v4.6H656v19.1h-7L649,437.9L649,437.9z"/>
			<path class="st2" d="M674.3,446.9h-5.4v5.4h6.6l-0.8,4.6h-13.1v-23.7h12.8v4.6h-5.8v4.2h5.4L674.3,446.9L674.3,446.9z"/>
		</g>
	</g>
</g>
</svg>
