<?xml version="1.0" encoding="utf-8"?>
<!-- Generator: Adobe Illustrator 29.1.0, SVG Export Plug-In . SVG Version: 9.03 Build 55587)  -->
<svg version="1.1" id="Calque_1" xmlns="http://www.w3.org/2000/svg" xmlns:xlink="http://www.w3.org/1999/xlink" x="0px" y="0px"
	 viewBox="0 0 228.8 131.7" style="enable-background:new 0 0 228.8 131.7;" xml:space="preserve">
<style type="text/css">
	.st0{fill:#1E1F1C;stroke:#1E1F1C;stroke-miterlimit:10;}
	.st1{fill:none;}
	.st2{fill:#1E1F1C;}
	.st3{fill:#1E1F1C;stroke:#FFFFFF;stroke-width:0.75;stroke-miterlimit:10;}
	.st4{fill:#1E1F1C;stroke:#1E1F1C;stroke-width:2;stroke-miterlimit:10;}
	.st5{fill:#F39204;stroke:#F39204;stroke-width:2.0001;stroke-miterlimit:10.0005;}
	.st6{fill:#FFFFFF;stroke:#1E1F1C;stroke-width:2.0001;stroke-miterlimit:10.0005;}
	.st7{fill:#F39204;stroke:#F39204;stroke-width:2;stroke-miterlimit:10;}
	.st8{fill:#F39204;stroke:#F39204;stroke-width:2;stroke-miterlimit:10.0001;}
	.st9{fill:#FFFFFF;stroke:#1E1F1C;stroke-width:2;stroke-miterlimit:10.0001;}
	.st10{fill:#1E1F1C;stroke:#1E1F1C;stroke-width:2;stroke-miterlimit:9.9998;}
	.st11{fill:#F9B233;}
</style>
<g>
	<path class="st0" d="M106.4,62.1L52.7,10.3c-3.5-3.4-9-4.3-12.2-1.9L27.7,20.7l0,0l14.1-10.2l62.7,60.6L90.4,81.3l0,0l16.5-8.8
		C110.1,70.1,109.9,65.5,106.4,62.1z"/>
	<g>
		<line class="st1" x1="44.4" y1="13.1" x2="30.2" y2="23.2"/>
		<polygon class="st2" points="45.3,14.4 30.2,23.2 43.6,11.9 		"/>
	</g>
	<g>
		<line class="st1" x1="47.9" y1="15.5" x2="33.6" y2="25.6"/>
		<polygon class="st2" points="48.8,16.8 33.6,25.6 47,14.3 		"/>
	</g>
	<g>
		<line class="st1" x1="50.4" y1="19.1" x2="36.2" y2="29.2"/>
		<polygon class="st2" points="51.3,20.4 36.2,29.2 49.6,17.9 		"/>
	</g>
	<g>
		<line class="st1" x1="53.6" y1="22.2" x2="39.3" y2="32.2"/>
		<polygon class="st2" points="54.4,23.4 39.3,32.2 52.7,21 		"/>
	</g>
	<g>
		<line class="st1" x1="56.9" y1="24.8" x2="42.6" y2="34.9"/>
		<polygon class="st2" points="57.8,26 42.6,34.9 56,23.6 		"/>
	</g>
	<g>
		<line class="st1" x1="60.2" y1="27.2" x2="45.9" y2="37.3"/>
		<polygon class="st2" points="61,28.4 45.9,37.3 59.3,26 		"/>
	</g>
	<g>
		<line class="st1" x1="63.2" y1="30.1" x2="48.9" y2="40.2"/>
		<polygon class="st2" points="64,31.3 48.9,40.2 62.3,28.9 		"/>
	</g>
	<g>
		<line class="st1" x1="65.6" y1="33.6" x2="51.4" y2="43.7"/>
		<polygon class="st2" points="66.5,34.8 51.4,43.7 64.8,32.4 		"/>
	</g>
	<g>
		<line class="st1" x1="68.3" y1="36.6" x2="54.1" y2="46.6"/>
		<polygon class="st2" points="69.2,37.8 54.1,46.6 67.5,35.3 		"/>
	</g>
	<g>
		<line class="st1" x1="71.8" y1="39" x2="57.5" y2="49"/>
		<polygon class="st2" points="72.7,40.2 57.5,49 70.9,37.8 		"/>
	</g>
	<g>
		<line class="st1" x1="74.3" y1="42.6" x2="60.1" y2="52.6"/>
		<polygon class="st2" points="75.2,43.8 60.1,52.6 73.5,41.3 		"/>
	</g>
	<g>
		<line class="st1" x1="77.5" y1="45.6" x2="63.2" y2="55.7"/>
		<polygon class="st2" points="78.4,46.9 63.2,55.7 76.6,44.4 		"/>
	</g>
	<g>
		<line class="st1" x1="80.8" y1="48.2" x2="66.6" y2="58.3"/>
		<polygon class="st2" points="81.7,49.5 66.6,58.3 80,47 		"/>
	</g>
	<g>
		<line class="st1" x1="84.1" y1="50.7" x2="69.8" y2="60.7"/>
		<polygon class="st2" points="84.9,51.9 69.8,60.7 83.2,49.4 		"/>
	</g>
	<g>
		<line class="st1" x1="87.1" y1="53.6" x2="72.8" y2="63.6"/>
		<polygon class="st2" points="88,54.8 72.8,63.6 86.2,52.3 		"/>
	</g>
	<g>
		<line class="st1" x1="89.6" y1="57.1" x2="75.3" y2="67.1"/>
		<polygon class="st2" points="90.4,58.3 75.3,67.1 88.7,55.8 		"/>
	</g>
	<g>
		<line class="st1" x1="93.4" y1="59.7" x2="79.2" y2="69.7"/>
		<polygon class="st2" points="94.3,60.9 79.2,69.7 92.6,58.4 		"/>
	</g>
	<g>
		<line class="st1" x1="96.7" y1="62.1" x2="82.4" y2="72.1"/>
		<polygon class="st2" points="97.5,63.3 82.4,72.1 95.8,60.8 		"/>
	</g>
	<g>
		<line class="st1" x1="99.7" y1="65" x2="85.4" y2="75"/>
		<polygon class="st2" points="100.6,66.2 85.4,75 98.8,63.7 		"/>
	</g>
	<g>
		<line class="st1" x1="102.2" y1="68.5" x2="87.9" y2="78.5"/>
		<polygon class="st2" points="103,69.7 87.9,78.5 101.3,67.3 		"/>
	</g>
</g>
<g>
	<polygon class="st3" points="65.5,52.1 46.3,63 83.6,2.7 	"/>
	<polygon class="st4" points="41.4,110 48.9,82.3 48.1,79.2 48.1,79.2 59.3,67.2 	"/>
	<ellipse transform="matrix(0.4362 -0.8999 0.8999 0.4362 -80.9614 99.6042)" class="st5" cx="39" cy="114.4" rx="5" ry="5.8"/>
	<ellipse transform="matrix(0.4362 -0.8999 0.8999 0.4362 -80.9614 99.6042)" class="st6" cx="39" cy="114.4" rx="5" ry="5.8"/>
	<path class="st7" d="M63.5,51.6"/>
	<polygon class="st3" points="109.1,15.6 49.3,74.8 61.8,53.8 	"/>
	<path class="st4" d="M47.2,77.6l-2.7-1.7c-0.4-0.2-0.7-0.5-1-0.9l-0.5-0.6c-1.1-1.4-1.2-3.3-0.2-4.6l3.9-5.6c0.3-0.4,0.7-0.8,1.1-1
		l15.9-9.5"/>
	<polygon class="st7" points="44.5,76.3 40,73.9 11.6,90 47.3,63.6 41.6,73 	"/>
	<polygon class="st4" points="44.5,76.3 40,73.9 11.6,90 47.3,63.6 41.6,73 	"/>
	<ellipse transform="matrix(0.7625 -0.647 0.647 0.7625 -58.4205 27.0058)" class="st8" cx="7.6" cy="93.1" rx="5" ry="5.8"/>
	<ellipse transform="matrix(0.7625 -0.647 0.647 0.7625 -58.4205 27.0058)" class="st9" cx="7.6" cy="93.1" rx="5" ry="5.8"/>
	<ellipse transform="matrix(0.2991 -0.9542 0.9542 0.2991 -22.3653 94.5028)" class="st10" cx="53.1" cy="62.5" rx="1.6" ry="1.6"/>
	<path class="st4" d="M40.4,118.8c-1.7,7.6,5.5,10.5,5.5,10.5"/>
</g>
<g>
	<path class="st2" d="M61.7,75.6c29,20.8,52.9,12.5,83.3,0.7c6.4-2.3,14.9-6,21.5-7.4c7.6-1.7,15.6-2.2,23.3-0.5
		c11.5,2.3,21.6,9.1,29.1,17.9c1.9,2.1,3.5,4.4,5.4,6.5c0.3,0.3,0.7,0.7,1,0.8c0.4,0.2,0.6-0.4,0.7-0.9c0,2.9-3.3-0.8-4.2-1.5
		c-15.2-15.2-32.7-22.5-54-16.8c-10.3,2.8-21.2,8-31.3,11.4C109,95.7,83.9,97.6,61.7,75.6L61.7,75.6z"/>
</g>
<g>
	<path class="st2" d="M61.7,76c1.8,0.9,5.7,2.8,7.4,3.6c2.8,1.4,7.1,3.1,10.1,4.4c1.5,0.5,6.1,2.2,7.7,2.8c5.1,1.5,10.6,3.1,15.8,4
		c21.7,4.3,43.3-1.6,64.6-6.1c9.6-1.8,19.6-2.7,29.3-1.1c9.3,1.5,18.1,5.9,24.7,12.5l0.5,0.5c0.2,0.1,0.4,0.4,0.5,0.6
		c1.6,2.3,3,4.6,4.5,7c-1.8-2.3-3.5-4.8-5.5-6.9c-3.3-2.7-6.9-5.2-10.8-7c-28-12.3-57.1,5.6-86,5.7c-5.4,0.2-11.4-0.3-16.8-1
		l-5.5-1.1c-2.7-0.5-5.5-1.4-8.1-2.1c-2-0.6-5.9-2.1-7.9-2.8c-2.5-1-5.1-2.2-7.6-3.3C72.8,82.9,66.9,79.4,61.7,76L61.7,76z"/>
</g>
<g>
	<path class="st2" d="M79.2,83.7c20.2,8.7,41.8,13.5,63.7,10c18.7-2.6,40.7-6.9,56.7,6.1c2.4,1.6,3.8,4,5.5,6.3l-2.9-2.9
		c-5-4.5-11.7-6.9-18.2-8.1c-13.6-2.4-26.8,0.9-40.5,2.7C120.1,101,99.2,95.8,79.2,83.7L79.2,83.7z"/>
</g>
<g>
	<g>
		<path class="st2" d="M119.6,71.6c0-2,0-5.5,0-7.6h-0.2c-0.3,3.8-0.8,10.3-0.9,11.3h-2.7c-0.1-2.2-0.6-8.4-0.9-11.4h-0.2
			c0,1.8,0.1,4.9,0.1,7.5v3.8h-3.3V60h5c0.2,1.4,0.5,4.9,0.6,6.7h0.1c0.2-2.2,0.3-3.6,0.6-6.7h5.2v15.3h-3.6L119.6,71.6L119.6,71.6z
			"/>
		<path class="st2" d="M128.3,60v15.3h-3.6V60H128.3z"/>
		<path class="st2" d="M137.7,71.6c0-2,0-5.5,0-7.6h-0.2c-0.3,3.8-0.8,10.3-0.9,11.3h-2.7c-0.1-2.2-0.6-8.4-0.9-11.4H133
			c0,1.8,0.1,4.9,0.1,7.5v3.8h-3.3V60h5c0.2,1.4,0.5,4.9,0.6,6.7h0.1c0.2-2.2,0.3-3.6,0.6-6.7h5.2v15.3h-3.6L137.7,71.6L137.7,71.6z
			"/>
		<path class="st2" d="M146.4,60v15.3h-3.6V60H146.4z"/>
	</g>
</g>
<path class="st11" d="M171.2,36.4"/>
<path class="st2" d="M143.9,63.7c7.6-2.5,2.1,11.7,2.1,11.7l5.5-14.2"/>
<g>
	<g>
		<path class="st2" d="M63,107.2v0.9c0,1.8-0.5,3.6-4.2,3.6c-2,0-4-0.5-4-3.4v-5.5c0-2.5,1.8-3.3,4.1-3.3c3.7,0,4.1,1.9,4.1,3.3v1.1
			h-3.6v-1.4c0-0.5,0-0.8-0.5-0.8c-0.4,0-0.5,0.2-0.5,0.8v6.2c0,0.6,0.1,0.8,0.5,0.8c0.4,0,0.5-0.2,0.5-0.9v-1.5L63,107.2L63,107.2z
			"/>
		<path class="st2" d="M72.2,102.9v5.6c0,2.4-1.7,3.3-4.3,3.3c-2.5,0-4-0.9-4-3.3v-5.8c0-2.2,1.7-3.1,4.1-3.1
			C70.4,99.6,72.2,100.6,72.2,102.9z M67.5,102.5v6.3c0,0.4,0.2,0.7,0.5,0.7c0.3,0,0.5-0.2,0.5-0.7v-6.3c0-0.5-0.2-0.7-0.6-0.7
			C67.7,101.8,67.5,102,67.5,102.5z"/>
		<path class="st2" d="M77.1,99.8v11.8h-3.5V99.8H77.1z"/>
		<path class="st2" d="M78.6,99.8h6.6v2.3h-3v2.3h2.8v2.3h-2.8v4.9h-3.6L78.6,99.8L78.6,99.8z"/>
		<path class="st2" d="M86.2,99.8h6.6v2.3h-3v2.3h2.8v2.3h-2.8v4.9h-3.6L86.2,99.8L86.2,99.8z"/>
		<path class="st2" d="M97.4,99.8v9.1c0,0.4,0.1,0.7,0.5,0.7c0.4,0,0.5-0.2,0.5-0.7v-9.1h3.7v8.8c0,2.5-1.5,3.2-4.2,3.2
			c-2.9,0-4-0.9-4-3.2v-8.7H97.4z"/>
		<path class="st2" d="M107,106.6v5h-3.5V99.8h4.4c2.9,0,3.8,1.2,3.8,3v0.4c0,1.3-0.6,2-1.4,2.4c1.1,0.4,1.4,1,1.4,2.8
			c0,1.4,0,2.8,0,3.2h-3.5c-0.2-0.2-0.2-1-0.2-3.7c0-1.2-0.1-1.3-0.9-1.3L107,106.6L107,106.6z M107,104.5h0.3
			c0.6,0,0.8-0.2,0.8-0.9v-0.9c0-0.7-0.2-0.8-0.9-0.8H107L107,104.5L107,104.5z"/>
		<path class="st2" d="M119.2,106.5h-2.7v2.7h3.3l-0.4,2.3h-6.5V99.8h6.4v2.3h-2.9v2.1h2.7L119.2,106.5L119.2,106.5z"/>
		<path class="st2" d="M133.8,104.5l-2.4,4.3c-1.5,2.6-2.6,3-4.5,3c-2.4,0-3.7-1.1-3.7-3.2c0-1.9,0.5-2.5,3.5-4.1
			c1.2-0.7,1.3-0.9,1.3-2c0-0.5-0.2-0.7-0.5-0.7c-0.3,0-0.5,0.2-0.5,0.7c0,0.6,0,1,0.6,1.7l6.1,7.5h-3.5l-4.7-5.7
			c-1.3-1.5-1.5-2-1.5-3.3c0-1.4,0.6-3,3.4-3c2.7,0,3.3,1.4,3.3,2.7c0,1.8-0.5,2.3-2.5,3.5c-1.1,0.7-1.7,1.1-1.7,2.3s0.3,1.5,1,1.5
			c0.5,0,0.8-0.4,1.4-1.4l1.8-3.6L133.8,104.5L133.8,104.5z"/>
		<path class="st2" d="M137.5,99.8h4.1c2.3,0,3.9,0.7,3.9,2.6v0.6c0,1.5-0.7,2-1.6,2.2c0.8,0.2,1.8,0.8,1.8,2.2v1
			c0,2.2-1.1,3.2-4,3.2h-4.2L137.5,99.8L137.5,99.8z M141.4,104.2c0.4,0,0.6-0.2,0.6-0.7v-0.9c0-0.4-0.1-0.8-0.7-0.8h-0.3v2.4
			L141.4,104.2L141.4,104.2z M140.9,109.5h0.3c0.6,0,0.7-0.3,0.7-0.8v-1.6c0-0.5-0.2-0.8-0.8-0.8h-0.2V109.5z"/>
		<path class="st2" d="M153.3,106.5h-2.7v2.7h3.3l-0.4,2.3H147V99.8h6.4v2.3h-2.9v2.1h2.7L153.3,106.5L153.3,106.5z"/>
		<path class="st2" d="M158.1,109.1l-0.2,2.5h-3.6l1.6-11.8h5.7l1.6,11.8h-3.7l-0.2-2.5H158.1z M159.1,106.8c-0.1-0.9-0.3-4-0.4-4.6
			h-0.2c0,0.5-0.2,3.5-0.3,4.6H159.1z"/>
		<path class="st2" d="M167.6,99.8v9.1c0,0.4,0.1,0.7,0.5,0.7c0.4,0,0.5-0.2,0.5-0.7v-9.1h3.7v8.8c0,2.5-1.5,3.2-4.2,3.2
			c-2.9,0-4-0.9-4-3.2v-8.7H167.6z"/>
		<path class="st2" d="M175,102.1h-1.8v-2.3h7.1v2.3h-1.8v9.5H175L175,102.1L175,102.1z"/>
		<path class="st2" d="M187.6,106.5h-2.7v2.7h3.3l-0.4,2.3h-6.5V99.8h6.4v2.3h-2.9v2.1h2.7L187.6,106.5L187.6,106.5z"/>
	</g>
</g>
</svg>
